# xmcd
#
# Track frame offsets: 
#        150
#        42980
#        68794
#        92536
#        111694
#        123553
#        160231
#        198923
#
# Disc length: 3147 seconds
#
# Revision: 0
# Processed by: cddbd v1.5.2PL0 Copyright (c) Steve Scherf et al.
# Submitted via: ExactAudioCopy v0.99pb5
#
DISCID=6e0c4908
DTITLE=Разные Люди and Чиж - Один день вместе - CD3
DYEAR=2007
DGENRE=Blues
TTITLE0=Она не вышла замуж
TTITLE1=Я подобно собаке
TTITLE2=Пригородный блюз
TTITLE3=18 берез
TTITLE4=Любитель жидкости
TTITLE5=Сен-Симилья
TTITLE6=Урал-Байкер блюз
TTITLE7=Вечная молодость
EXTD=
EXTT0=
EXTT1=
EXTT2=
EXTT3=
EXTT4=
EXTT5=
EXTT6=
EXTT7=
PLAYORDER=
